<svg width="154" height="25" viewBox="0 0 154 25" fill="none" xmlns="http://www.w3.org/2000/svg">
<path d="M16.832 19.264H13.088L3.536 5.416V19.264H0.656V1.408H4.28L13.952 15.424V1.408H16.832V19.264ZM25.6788 16.48C26.6868 16.48 27.4868 16.152 28.0788 15.496C28.6708 14.84 28.9668 13.984 28.9668 12.928C28.9668 11.872 28.6628 11.016 28.0548 10.36C27.4628 9.704 26.6708 9.376 25.6788 9.376C24.6868 9.376 23.8868 9.704 23.2788 10.36C22.6868 11.016 22.3908 11.872 22.3908 12.928C22.3908 13.984 22.6868 14.84 23.2788 15.496C23.8708 16.152 24.6708 16.48 25.6788 16.48ZM19.5108 12.928C19.5108 11.776 19.7668 10.712 20.2788 9.736C20.8068 8.744 21.5348 7.96 22.4628 7.384C23.4068 6.808 24.4788 6.52 25.6788 6.52C26.9268 6.52 28.0148 6.808 28.9428 7.384C29.8868 7.96 30.6068 8.736 31.1028 9.712C31.5988 10.688 31.8468 11.76 31.8468 12.928C31.8468 14.096 31.5988 15.168 31.1028 16.144C30.6068 17.12 29.8868 17.896 28.9428 18.472C28.0148 19.048 26.9268 19.336 25.6788 19.336C24.4788 19.336 23.4068 19.048 22.4628 18.472C21.5348 17.896 20.8068 17.12 20.2788 16.144C19.7668 15.152 19.5108 14.08 19.5108 12.928ZM40.3147 19.24H37.7947L32.4427 6.592H35.5627L39.0427 15.232L42.5947 6.592H45.7387L40.3147 19.24ZM55.6593 11.848C55.5313 11.016 55.1953 10.352 54.6513 9.856C54.1073 9.344 53.3793 9.088 52.4673 9.088C51.5553 9.088 50.7873 9.328 50.1633 9.808C49.5393 10.272 49.1553 10.96 49.0113 11.872L55.6593 11.848ZM46.3233 12.928C46.3233 11.744 46.5633 10.672 47.0433 9.712C47.5393 8.736 48.2433 7.96 49.1553 7.384C50.0833 6.808 51.1793 6.52 52.4433 6.52C54.1233 6.52 55.3553 6.92 56.1393 7.72C56.9233 8.52 57.4593 9.264 57.7473 9.952C58.0033 10.592 58.1713 11.296 58.2513 12.064C58.3473 12.816 58.3793 13.52 58.3473 14.176H49.0113C49.2353 14.976 49.6353 15.6 50.2113 16.048C50.8033 16.496 51.5553 16.72 52.4673 16.72C53.1393 16.72 53.6753 16.632 54.0753 16.456C54.4913 16.264 54.7153 16.152 54.7473 16.12C54.7793 16.072 54.9633 15.824 55.2993 15.376L57.8193 16.504C57.4353 17.288 56.7873 17.952 55.8753 18.496C54.9633 19.04 53.8193 19.312 52.4433 19.312C51.1793 19.312 50.0833 19.024 49.1553 18.448C48.2433 17.872 47.5393 17.104 47.0433 16.144C46.5633 15.168 46.3233 14.096 46.3233 12.928ZM63.3652 0.904V19.312H60.4852V0.904H63.3652ZM78.2889 9.352L85.3689 19H83.1849L77.0889 10.672L74.0169 14.104V19H72.2889V1.696H74.0169V11.488L82.8489 1.672H85.2009L78.2889 9.352ZM92.3306 17.44C93.0506 17.44 93.7226 17.256 94.3466 16.888C94.9866 16.52 95.4986 16 95.8826 15.328C96.2666 14.64 96.4586 13.864 96.4586 13C96.4586 12.136 96.2666 11.368 95.8826 10.696C95.4986 10.024 94.9866 9.504 94.3466 9.136C93.7226 8.752 93.0506 8.56 92.3306 8.56C91.0346 8.56 90.0266 8.976 89.3066 9.808C88.5866 10.624 88.2266 11.688 88.2266 13C88.2266 14.312 88.5866 15.384 89.3066 16.216C90.0266 17.032 91.0346 17.44 92.3306 17.44ZM86.4986 13C86.4986 11.864 86.7226 10.832 87.1706 9.904C87.6346 8.976 88.3066 8.24 89.1866 7.696C90.0666 7.136 91.1066 6.856 92.3066 6.856C93.0586 6.856 93.7946 7.064 94.5146 7.48C95.2506 7.896 95.8826 8.528 96.4106 9.376V6.784H98.1386V19H96.4106V16.6C95.8666 17.496 95.2346 18.152 94.5146 18.568C93.8106 18.968 93.0746 19.168 92.3066 19.168C91.1066 19.168 90.0666 18.888 89.1866 18.328C88.3066 17.768 87.6346 17.024 87.1706 16.096C86.7226 15.152 86.4986 14.12 86.4986 13ZM106.768 17.488C107.52 17.488 108.208 17.288 108.832 16.888C109.456 16.488 109.944 15.944 110.296 15.256C110.664 14.568 110.848 13.816 110.848 13C110.848 12.2 110.664 11.464 110.296 10.792C109.928 10.104 109.432 9.56 108.808 9.16C108.184 8.76 107.504 8.56 106.768 8.56C105.52 8.56 104.52 8.968 103.768 9.784C103.032 10.584 102.664 11.656 102.664 13C102.664 14.36 103.032 15.448 103.768 16.264C104.52 17.08 105.52 17.488 106.768 17.488ZM100.936 13C100.936 11.8 101.176 10.736 101.656 9.808C102.152 8.88 102.84 8.16 103.72 7.648C104.6 7.136 105.608 6.88 106.744 6.88C107.656 6.88 108.472 7.104 109.192 7.552C109.928 8 110.48 8.616 110.848 9.4V6.784H112.576V18.4C112.56 20.336 112.008 21.832 110.92 22.888C109.848 23.96 108.336 24.496 106.384 24.496C105.408 24.496 104.504 24.248 103.672 23.752C102.84 23.272 102.112 22.56 101.488 21.616L102.952 20.68C103.848 22.072 104.992 22.768 106.384 22.768C107.872 22.768 108.984 22.4 109.72 21.664C110.456 20.944 110.832 19.848 110.848 18.376V16.552C110.432 17.304 109.84 17.928 109.072 18.424C108.304 18.92 107.528 19.168 106.744 19.168C105.608 19.168 104.6 18.912 103.72 18.4C102.84 17.872 102.152 17.144 101.656 16.216C101.176 15.272 100.936 14.2 100.936 13ZM117.792 13.984C117.792 14.944 118.072 15.744 118.632 16.384C119.208 17.008 119.984 17.32 120.96 17.32C121.68 17.32 122.312 17.144 122.856 16.792C123.416 16.44 123.84 15.992 124.128 15.448C124.432 14.888 124.584 14.328 124.584 13.768V6.688H126.312V19H124.584V16.936C124.104 17.64 123.584 18.16 123.024 18.496C122.464 18.832 121.752 19 120.888 19C119.96 19 119.128 18.784 118.392 18.352C117.672 17.92 117.104 17.336 116.688 16.6C116.272 15.864 116.064 15.056 116.064 14.176V6.784H117.792V13.984ZM131.581 24.52L133.981 18.544L128.989 6.784H130.885L134.893 16.24L138.733 6.784H140.605L135.949 18.256L133.453 24.52H131.581ZM147.549 17.44C148.269 17.44 148.941 17.256 149.565 16.888C150.205 16.52 150.717 16 151.101 15.328C151.485 14.64 151.677 13.864 151.677 13C151.677 12.136 151.485 11.368 151.101 10.696C150.717 10.024 150.205 9.504 149.565 9.136C148.941 8.752 148.269 8.56 147.549 8.56C146.253 8.56 145.245 8.976 144.525 9.808C143.805 10.624 143.445 11.688 143.445 13C143.445 14.312 143.805 15.384 144.525 16.216C145.245 17.032 146.253 17.44 147.549 17.44ZM141.717 13C141.717 11.864 141.941 10.832 142.389 9.904C142.853 8.976 143.525 8.24 144.405 7.696C145.285 7.136 146.325 6.856 147.525 6.856C148.277 6.856 149.013 7.064 149.733 7.48C150.469 7.896 151.101 8.528 151.629 9.376V6.784H153.357V19H151.629V16.6C151.085 17.496 150.453 18.152 149.733 18.568C149.029 18.968 148.293 19.168 147.525 19.168C146.325 19.168 145.285 18.888 144.405 18.328C143.525 17.768 142.853 17.024 142.389 16.096C141.941 15.152 141.717 14.12 141.717 13Z" fill="#586FE9"/>
</svg>
